<svg width="320" height="123" viewBox="0 0 320 123" fill="none" xmlns="http://www.w3.org/2000/svg">
<mask id="mask0_199_9759" style="mask-type:alpha" maskUnits="userSpaceOnUse" x="-480" y="0" width="800" height="123">
<rect x="-480" width="800" height="122.685" fill="#D9D9D9"/>
</mask>
<g mask="url(#mask0_199_9759)">
<path d="M168.703 -19.0175C169.273 -19.5766 169.843 -20.6949 170.413 -21.2541C175.543 -26.2865 180.104 -30.7598 185.234 -35.233C185.804 -35.7922 186.944 -36.3514 187.514 -36.9105C188.084 -36.3514 188.084 -36.3514 188.654 -35.7922C193.214 -30.2006 198.915 -27.4048 205.755 -25.7274C216.586 -23.4907 227.417 -24.609 237.107 -29.6414C239.957 -31.3189 242.808 -32.9964 245.088 -35.233C245.658 -35.7922 245.658 -35.7922 246.228 -36.3513C246.798 -35.7922 246.798 -35.7922 247.368 -35.7922C253.068 -30.2006 259.909 -26.8456 267.319 -25.1682C276.44 -23.4907 285.56 -24.0499 294.111 -27.964C298.101 -29.6414 301.521 -31.8781 304.371 -35.233C304.941 -35.7922 304.941 -35.7922 305.512 -36.3513C311.782 -30.2006 317.482 -24.609 323.753 -18.4583C323.183 -17.8991 323.183 -17.34 322.613 -17.34C320.332 -15.1034 318.622 -13.4258 316.342 -11.1892C315.772 -10.6301 314.632 -10.0709 314.062 -10.0709C308.932 -10.6301 304.371 -8.9526 300.381 -7.27512C299.811 -7.27512 299.811 -6.71602 299.241 -6.71602H298.671C295.821 -9.51181 292.971 -11.7484 288.98 -12.3076C287.27 -12.3076 286.13 -12.3076 284.42 -11.7484C283.85 -7.27514 285.56 -3.92021 290.12 -2.24274C291.831 -1.68358 291.831 -1.12442 291.261 0.553055C290.691 2.78969 288.98 3.90802 286.7 5.02634C283.28 6.70381 279.86 7.26299 275.87 6.70383C275.3 6.70383 274.16 6.7038 273.589 6.14464C273.589 6.7038 273.589 7.26297 273.589 7.82213C273.589 15.0912 271.309 21.8011 266.749 27.3927C263.329 31.8659 259.339 35.2209 254.208 36.8983C252.498 37.4575 250.218 38.0166 247.938 38.0166C247.938 37.4575 247.938 36.8984 247.368 36.3392C246.798 30.1885 246.798 24.0377 248.508 17.887C250.218 11.7363 253.068 5.58546 258.198 1.67136C258.198 1.67136 258.198 1.67141 258.769 1.11225C258.198 1.11225 257.629 0.553055 257.058 0.553055C253.068 -1.12442 251.358 -6.15686 253.068 -9.51181C253.638 -10.071 254.208 -10.0709 254.778 -10.0709C255.918 -10.0709 257.628 -10.0709 258.769 -10.0709C260.479 -10.0709 262.759 -11.1892 263.899 -12.8667C265.039 -14.5442 265.039 -15.1034 263.329 -16.2217C260.479 -18.4583 257.058 -19.0174 253.638 -18.4583C251.928 -17.8991 251.358 -18.4583 251.928 -20.1358C251.928 -22.3724 251.358 -24.6091 250.788 -26.2866C250.218 -26.8457 250.218 -27.964 249.648 -28.5232C247.938 -30.2006 245.658 -30.2006 244.518 -28.5232C242.808 -26.2865 242.238 -24.0499 242.238 -21.2541C242.238 -18.4583 242.238 -18.4583 239.387 -18.4583C235.967 -18.4583 233.117 -17.8991 230.837 -15.6625C229.697 -14.5442 229.697 -13.985 230.267 -12.8667C230.837 -11.7484 232.547 -10.6301 233.687 -10.6301C235.397 -10.0709 237.107 -10.0709 238.817 -10.0709C240.527 -10.0709 241.097 -10.0709 241.667 -8.39342C242.808 -4.47932 241.667 -0.565228 236.537 1.11225C236.537 1.11225 235.967 1.1122 235.397 1.67136C235.397 2.23051 235.967 2.23058 235.967 2.78974C242.237 8.38132 245.088 15.6504 246.228 23.4786C246.798 28.511 246.798 33.5434 246.228 39.135C243.377 39.6942 240.527 38.5758 237.677 37.4575C230.267 33.5434 225.706 27.9518 222.286 20.6828C220.576 16.7687 220.006 12.8545 220.006 8.94043C220.006 8.38127 220.006 8.38129 220.576 7.82213C219.436 7.82213 218.866 7.82216 217.726 8.38132C214.306 8.94048 210.885 8.38125 207.465 7.26294C205.185 6.14462 203.475 5.02637 202.335 2.78974C201.195 1.11227 201.765 0.553074 203.475 -0.565243C206.895 -1.68356 209.175 -5.03851 209.175 -8.95262C209.175 -10.0709 208.605 -10.0709 207.465 -10.6301C204.045 -11.1893 201.195 -10.6301 198.345 -8.39342C197.775 -7.83426 197.205 -7.27518 196.065 -6.71602C193.784 -4.47939 194.355 -5.03851 191.504 -6.15683C189.794 -6.71598 187.514 -7.83426 185.234 -8.39342C182.384 -8.95258 179.534 -8.95262 177.253 -8.95262C174.403 -13.4259 171.553 -16.2217 168.703 -19.0175Z" fill="#EEEFEC" fill-opacity="0.9"/>
<path d="M319.763 128.04C320.333 123.008 319.193 118.535 316.912 114.061C315.772 111.825 315.772 111.825 317.482 110.147C319.763 107.911 321.473 105.115 321.473 101.201C321.473 97.2865 320.903 97.2866 316.912 97.8457C314.062 98.4049 311.782 100.082 311.212 102.878C310.642 104.556 310.072 104.556 308.362 103.996C306.652 103.437 304.942 101.76 304.372 100.082C302.091 96.7274 302.092 92.8133 302.662 88.8992C302.662 88.34 302.661 87.2217 303.231 86.6626C291.261 87.2217 282.14 82.7485 274.73 73.8019C271.879 70.447 270.169 66.5329 270.169 61.5005C277.01 60.3822 283.85 60.3821 290.691 62.0596C297.531 63.7371 303.802 66.5329 308.362 72.1245C308.932 71.0061 308.932 70.447 309.502 69.8878C311.212 65.9737 316.342 64.2962 319.763 66.5329C320.333 67.092 320.333 67.6512 320.333 68.2104C320.333 69.8878 320.333 71.5653 320.333 73.2427C320.903 74.9202 321.473 76.5977 323.183 77.1568C324.323 78.2752 325.463 77.716 326.033 76.5977C328.313 73.8019 329.453 70.447 328.313 66.5329C328.313 65.9737 328.313 65.9737 328.313 65.4146C328.313 65.4146 328.313 65.4145 328.313 64.8554C328.883 64.8554 329.453 64.8554 330.593 64.8554C333.443 64.8554 336.294 64.2963 338.574 62.6188C340.854 60.9413 340.854 58.7047 338.574 57.0272C336.294 55.3497 333.444 54.7905 331.163 54.7905C330.593 54.7905 329.453 54.7905 328.883 54.7905C328.883 53.6722 328.883 53.1131 328.883 52.5539C329.453 49.199 328.313 46.4031 326.603 43.6074C325.463 41.9299 324.323 41.3708 322.613 43.0482C320.903 44.7257 320.333 47.5215 320.333 49.7581C320.333 50.8764 320.333 51.4356 320.333 52.5539C315.772 55.3497 311.212 53.6722 307.792 48.0806C307.792 48.0806 307.222 48.0807 307.222 48.6398C302.661 54.2314 295.821 57.0272 288.981 58.1455C282.71 59.2638 276.44 59.2638 269.599 58.7047C269.599 57.0272 269.599 55.3497 270.169 54.2314C271.31 49.199 274.73 45.2848 278.15 42.4891C282.71 38.575 288.411 35.7792 294.681 34.6609C296.391 34.1017 298.671 34.6608 300.381 34.1017C300.951 34.1017 301.521 34.1017 302.091 34.1017C302.091 32.9834 301.521 31.8651 301.521 30.7468C300.951 26.2735 301.521 22.3594 304.372 19.0044C304.942 17.8861 306.652 17.327 307.792 16.7678C309.502 16.2087 310.072 16.2087 310.642 17.8861C312.352 21.8002 315.772 24.0368 320.333 22.9185C321.473 20.1227 321.473 17.8861 319.763 15.0903C318.623 12.8537 316.912 10.6171 315.202 8.38047C315.202 7.82131 315.772 7.26214 315.772 6.70298C317.482 2.78887 318.622 -1.12521 318.622 -5.59848C318.622 -6.71679 319.193 -7.83511 319.763 -8.39427C322.043 -10.6309 324.893 -12.8676 327.173 -15.1042C328.883 -14.5451 343.704 0.552259 345.984 2.78889C345.984 2.78889 345.984 3.348 345.414 3.348C339.714 7.2621 336.294 13.4128 334.583 20.1227C331.733 31.3059 332.873 41.3708 338.574 51.4356C340.284 54.2314 341.994 56.4681 344.274 58.7047C344.844 59.2638 345.414 59.8229 345.984 60.3821C345.984 60.9413 345.414 60.9413 345.414 60.9413C339.144 65.9737 336.294 72.6836 334.583 79.9526C332.873 88.8992 333.443 97.8457 337.434 106.233C339.144 110.147 341.994 113.502 345.414 116.298C345.984 116.857 345.984 116.857 346.554 117.416C345.984 118.535 344.844 119.094 344.274 120.212C339.714 124.685 334.584 129.718 330.023 134.191C329.453 134.75 328.883 135.309 328.313 135.868C325.463 133.632 322.613 130.836 319.763 128.04Z" fill="#EEEFEC" fill-opacity="0.9"/>
<path d="M169.844 141.461C170.414 142.02 170.984 143.138 171.554 143.698C176.684 148.73 181.244 153.203 186.375 157.677C186.945 158.236 188.085 158.795 188.655 159.354C189.225 158.795 189.225 158.795 189.795 158.236C194.355 152.644 200.056 149.848 206.896 148.171C217.727 145.934 228.557 147.053 238.248 152.085C241.098 153.762 243.948 155.44 246.229 157.677C246.799 158.236 246.799 158.236 247.369 158.795C247.939 158.236 247.939 158.236 248.509 158.236C254.209 152.644 261.05 149.289 268.46 147.612C277.581 145.934 286.701 146.493 295.252 150.407C299.242 152.085 302.662 154.322 305.512 157.677C306.082 158.236 306.082 158.236 306.652 158.795C312.923 152.644 318.623 147.053 324.894 140.902C324.324 140.343 324.324 139.784 323.753 139.784C321.473 137.547 319.763 135.869 317.483 133.633C316.913 133.074 315.773 132.514 315.203 132.514C310.073 133.074 305.512 131.396 301.522 129.719C300.952 129.719 300.952 129.159 300.382 129.159H299.812C296.962 131.955 294.112 134.192 290.121 134.751C288.411 134.751 287.271 134.751 285.561 134.192C284.991 129.719 286.701 126.364 291.262 124.686C292.972 124.127 292.972 123.568 292.402 121.89C291.831 119.654 290.121 118.536 287.841 117.417C284.421 115.74 281.001 115.181 277.011 115.74C276.441 115.74 275.3 115.74 274.73 116.299C274.73 115.74 274.73 115.181 274.73 114.621C274.73 107.352 272.45 100.642 267.89 95.0509C264.47 90.5776 260.479 87.2226 255.349 85.5451C253.639 84.9859 251.359 84.4268 249.079 84.4268C249.079 84.986 249.079 85.5451 248.509 86.1043C247.939 92.255 247.939 98.4058 249.649 104.557C251.359 110.707 254.209 116.858 259.339 120.772C259.339 120.772 259.34 120.772 259.91 121.331C259.34 121.331 258.769 121.89 258.199 121.89C254.209 123.568 252.499 128.6 254.209 131.955C254.779 132.514 255.349 132.514 255.919 132.514C257.059 132.514 258.769 132.514 259.91 132.514C261.62 132.514 263.9 133.633 265.04 135.31C266.18 136.988 266.18 137.547 264.47 138.665C261.62 140.902 258.199 141.461 254.779 140.902C253.069 140.343 252.499 140.902 253.069 142.579C253.069 144.816 252.499 147.053 251.929 148.73C251.359 149.289 251.359 150.408 250.789 150.967C249.079 152.644 246.799 152.644 245.659 150.967C243.949 148.73 243.378 146.493 243.378 143.698C243.378 140.902 243.378 140.902 240.528 140.902C237.108 140.902 234.258 140.343 231.978 138.106C230.838 136.988 230.838 136.429 231.408 135.31C231.978 134.192 233.688 133.074 234.828 133.074C236.538 132.514 238.248 132.514 239.958 132.514C241.668 132.514 242.238 132.514 242.808 130.837C243.949 126.923 242.808 123.009 237.678 121.331C237.678 121.331 237.108 121.331 236.538 120.772C236.538 120.213 237.108 120.213 237.108 119.654C243.379 114.062 246.229 106.793 247.369 98.965C247.939 93.9325 247.939 88.9001 247.369 83.3085C244.519 82.7493 241.668 83.8677 238.818 84.986C231.408 88.9001 226.847 94.4917 223.427 101.761C221.717 105.675 221.147 109.589 221.147 113.503C221.147 114.062 221.147 114.062 221.717 114.621C220.577 114.621 220.007 114.621 218.867 114.062C215.447 113.503 212.027 114.062 208.606 115.181C206.326 116.299 204.616 117.417 203.476 119.654C202.336 121.331 202.906 121.89 204.616 123.009C208.036 124.127 210.316 127.482 210.316 131.396C210.316 132.514 209.746 132.514 208.606 133.074C205.186 133.633 202.336 133.074 199.486 130.837C198.916 130.278 198.346 129.719 197.206 129.159C194.925 126.923 195.495 127.482 192.645 128.6C190.935 129.16 188.655 130.278 186.375 130.837C183.525 131.396 180.674 131.396 178.394 131.396C175.544 135.869 172.694 138.665 169.844 141.461Z" fill="#EEEFEC" fill-opacity="0.9"/>
</g>
</svg>
