<svg xmlns="http://www.w3.org/2000/svg" width="32" height="33" viewBox="0 0 32 33" fill="none">
  <path d="M29.5725 13.9806L29.4312 13.3812H16.4037V18.8949H24.1875C23.3794 22.7324 19.6294 24.7524 16.5662 24.7524C14.3375 24.7524 11.9881 23.8149 10.4331 22.3081C9.61271 21.5003 8.95966 20.5387 8.51137 19.4783C8.06308 18.4178 7.82835 17.2793 7.82062 16.1281C7.82062 13.8056 8.86438 11.4824 10.3831 9.95431C11.9019 8.42619 14.1956 7.57119 16.4762 7.57119C19.0881 7.57119 20.96 8.95806 21.66 9.59056L25.5781 5.69306C24.4287 4.68306 21.2712 2.13806 16.35 2.13806C12.5531 2.13806 8.9125 3.59244 6.25125 6.24494C3.625 8.85681 2.26562 12.6337 2.26562 16.1381C2.26562 19.6424 3.55188 23.2306 6.09688 25.8631C8.81625 28.6706 12.6675 30.1381 16.6331 30.1381C20.2413 30.1381 23.6612 28.7243 26.0987 26.1593C28.495 23.6343 29.7344 20.1406 29.7344 16.4781C29.7344 14.9362 29.5794 14.0206 29.5725 13.9806Z" fill="#70797A"/>
</svg>