<svg width="263" height="73" viewBox="0 0 263 73" fill="none" xmlns="http://www.w3.org/2000/svg">
<g clip-path="url(#clip0_199_2576)">
<path d="M107.8 69.9629C107.8 69.9629 186.57 74.6251 217.855 35.8855V36.27C186.57 -2.46966 107.8 2.19256 107.8 2.19256C32.8733 6.03768 3 36.0777 3 36.0777C3 36.0777 32.8733 66.1178 107.8 69.9629Z" stroke="#63A8BE" stroke-width="4.70547" stroke-miterlimit="10"/>
<path d="M46.1558 13.0549C50.3094 15.3473 53.882 18.5413 56.6043 22.3962C59.3265 26.251 61.1273 30.6661 61.8709 35.3086C62.1383 36.9939 62.1874 38.7059 62.0169 40.4034C61.5303 45.354 59.6328 55.2071 51.751 60.35C51.5999 60.4563 51.417 60.5094 51.2317 60.5007C51.0464 60.492 50.8694 60.422 50.7292 60.3019C49.5129 59.2926 46.545 56.1204 45.426 47.8053C45.426 47.8053 43.4312 32.0402 53.0159 18.1978" stroke="#63A8BE" stroke-width="4.70547" stroke-miterlimit="10"/>
<path d="M130.132 69.6744C130.132 69.6744 170.271 66.4061 168.666 32.1364C168.277 24.1577 165.698 11.7572 156.551 5.65308" stroke="#63A8BE" stroke-width="4.70547" stroke-miterlimit="10"/>
<path d="M56.1299 10.0751C56.1299 10.0751 84.6896 29.7333 61.3358 62.3207C61.2681 62.4134 61.2253 62.5216 61.2116 62.6351C61.1979 62.7486 61.2137 62.8637 61.2575 62.9696C61.3013 63.0754 61.3717 63.1684 61.462 63.2399C61.5524 63.3114 61.6596 63.3589 61.7737 63.3781C66.6877 64.003 86.3438 65.541 99.9668 52.2753C104.054 48.3341 107.557 43.047 109.989 36.0777C109.989 36.0777 116.363 16.0831 103.81 2.81738C103.81 2.81738 93.6419 8.39282 95.3934 35.501C95.3853 35.7742 95.4016 36.0476 95.442 36.3181C95.442 37.8561 96.2205 44.3928 100.405 52.9482" stroke="#63A8BE" stroke-width="4.70547" stroke-miterlimit="10"/>
<path d="M95.4419 69.0495C95.4419 69.0495 142.782 45.0655 116.85 2.00012" stroke="#63A8BE" stroke-width="4.70547" stroke-miterlimit="10"/>
<path d="M171.974 9.20972C174.553 12.8145 190.998 35.9814 166.817 64.2912" stroke="#63A8BE" stroke-width="4.70547" stroke-miterlimit="10"/>
<path d="M155.091 60.6864C155.091 60.6864 148.815 49.7278 151.54 36.2699C151.54 36.2699 154.118 22.091 164.141 14.3527" stroke="#63A8BE" stroke-width="4.70547" stroke-miterlimit="10"/>
<path d="M217.952 36.4622C217.952 36.4622 229.386 59.533 259.356 54.7266C259.356 54.7266 248.506 33.4822 217.952 36.4622Z" stroke="#63A8BE" stroke-width="4.70547" stroke-miterlimit="10"/>
<path d="M217.952 35.9816C217.952 35.9816 229.386 12.9108 259.356 17.7172C259.356 17.7172 248.506 38.9135 217.952 35.9816Z" stroke="#63A8BE" stroke-width="4.70547" stroke-miterlimit="10"/>
<path d="M26.4998 35.6931C28.5688 35.6931 30.2461 34.0362 30.2461 31.9922C30.2461 29.9482 28.5688 28.2913 26.4998 28.2913C24.4307 28.2913 22.7534 29.9482 22.7534 31.9922C22.7534 34.0362 24.4307 35.6931 26.4998 35.6931Z" fill="#63A8BE"/>
</g>
<defs>
<clipPath id="clip0_199_2576">
<rect width="262.356" height="72.1381" fill="white"/>
</clipPath>
</defs>
</svg>
