<svg xmlns="http://www.w3.org/2000/svg" width="32" height="33" viewBox="0 0 32 33" fill="none">
  <path d="M21.8331 4.47119C23.3789 4.4758 24.8601 5.09191 25.9531 6.18495C27.0462 7.27799 27.6623 8.75915 27.6669 10.3049V21.9712C27.6623 23.517 27.0462 24.9981 25.9531 26.0912C24.8601 27.1842 23.3789 27.8003 21.8331 27.8049H10.1669C8.62109 27.8003 7.13993 27.1842 6.04689 26.0912C4.95385 24.9981 4.33774 23.517 4.33313 21.9712V10.3049C4.33774 8.75915 4.95385 7.27799 6.04689 6.18495C7.13993 5.09191 8.62109 4.4758 10.1669 4.47119H21.8331ZM21.8331 2.13806H10.1669C5.675 2.13806 2 5.81306 2 10.3049V21.9712C2 26.4631 5.675 30.1381 10.1669 30.1381H21.8331C26.325 30.1381 30 26.4631 30 21.9712V10.3049C30 5.81306 26.325 2.13806 21.8331 2.13806Z" fill="#70797A"/>
  <path d="M23.5831 10.3049C23.237 10.3049 22.8987 10.2023 22.6109 10.01C22.3231 9.81771 22.0988 9.5444 21.9663 9.22463C21.8339 8.90486 21.7992 8.55299 21.8668 8.21352C21.9343 7.87406 22.1009 7.56224 22.3457 7.3175C22.5904 7.07275 22.9023 6.90608 23.2417 6.83856C23.5812 6.77103 23.9331 6.80569 24.2528 6.93814C24.5726 7.0706 24.8459 7.2949 25.0382 7.58268C25.2305 7.87047 25.3331 8.20881 25.3331 8.55493C25.3336 8.78488 25.2887 9.01267 25.2009 9.22521C25.1132 9.43776 24.9843 9.63087 24.8217 9.79347C24.6591 9.95607 24.466 10.085 24.2534 10.1727C24.0409 10.2605 23.8131 10.3054 23.5831 10.3049ZM16 11.4712C16.923 11.4712 17.8253 11.7449 18.5928 12.2577C19.3602 12.7705 19.9584 13.4994 20.3116 14.3521C20.6649 15.2049 20.7573 16.1432 20.5772 17.0485C20.3971 17.9538 19.9527 18.7854 19.3 19.438C18.6473 20.0907 17.8157 20.5352 16.9105 20.7153C16.0052 20.8953 15.0668 20.8029 14.2141 20.4497C13.3613 20.0965 12.6324 19.4983 12.1196 18.7308C11.6068 17.9634 11.3331 17.0611 11.3331 16.1381C11.3345 14.9007 11.8266 13.7145 12.7015 12.8395C13.5764 11.9646 14.7627 11.4725 16 11.4712ZM16 9.13806C14.6155 9.13806 13.2622 9.5486 12.111 10.3178C10.9599 11.0869 10.0627 12.1802 9.53285 13.4593C9.00303 14.7384 8.86441 16.1458 9.13451 17.5037C9.4046 18.8616 10.0713 20.1088 11.0503 21.0878C12.0292 22.0668 13.2765 22.7335 14.6344 23.0036C15.9922 23.2737 17.3997 23.135 18.6788 22.6052C19.9579 22.0754 21.0511 21.1782 21.8203 20.027C22.5895 18.8759 23 17.5225 23 16.1381C23 14.2815 22.2625 12.5011 20.9497 11.1883C19.637 9.87556 17.8565 9.13806 16 9.13806Z" fill="#70797A"/>
</svg>