<svg width="481" height="425" viewBox="0 0 481 425" fill="none" xmlns="http://www.w3.org/2000/svg">
<path d="M454.988 466.12L630.938 525.601C631.561 525.742 632.185 525.883 632.808 526.024C636.549 526.87 639.948 526.329 643.63 524.54C647.312 522.751 650.029 519.434 651.64 515.21C653.251 510.986 652.851 506.963 651.063 503.281C649.274 499.599 645.957 496.882 641.734 495.271L465.16 435.649C460.937 434.038 456.914 434.439 453.232 436.227C449.551 438.016 446.834 441.334 445.222 445.558C443.188 451.652 444.894 458.592 449.8 462.98C451.388 464.65 453.117 465.697 454.988 466.12ZM279.527 227.81C283.832 226.162 286.408 223.468 288.643 219.385C290.254 215.162 290.477 211.279 288.83 206.974L213.879 11.0721C212.232 6.76658 209.538 4.19055 205.456 1.95587C201.233 0.344723 197.351 0.121726 193.046 1.76931C188.74 3.4169 186.164 6.1113 183.93 10.1938C182.319 14.4175 182.095 18.2997 183.743 22.6053L258.693 218.507C259.517 220.66 260.964 222.954 263.176 224.765C265.388 226.577 267.74 227.764 270.234 228.329C273.352 229.034 276.61 229.116 279.527 227.81ZM342.586 183.744L395.683 27.3059C398.282 18.7176 393.741 9.82432 385.777 7.36664C381.694 5.13197 377.671 5.5325 373.99 7.32119C370.308 9.10986 367.591 12.4278 365.98 16.6514L312.883 173.089C310.848 179.184 312.555 186.124 317.46 190.512C319.19 191.558 320.919 192.605 322.648 193.652C323.272 193.793 323.895 193.934 324.519 194.075C332 195.768 340.129 191.709 342.586 183.744ZM659.03 42.3287C622.196 11.0522 569.917 100.163 550.133 123.87C541.076 134.93 542.054 150.883 553.113 159.94C562.924 168.714 577.346 168.701 587.226 159.794C610.327 138.803 703.323 81.1922 659.03 42.3287ZM0.602887 438.018C0.520849 441.277 1.26245 446.688 8.37985 452.887C17.0855 460.756 33.9782 467.201 59.5405 472.985C72.6333 475.948 87.7377 478.711 104.854 481.273C268.167 509.709 444.619 404.782 500.36 352.506C541.07 314.525 562.51 274.806 561.542 238.536C561.293 213.572 550.08 190.716 529.211 172.884C444.202 102.521 398.013 158.925 361.021 203.647L355.446 210.906C238.037 341.647 150.849 367.8 104.339 382.182L102.95 382.523C98.6453 384.171 94.4811 385.195 90.317 386.219C15.9633 410.687 -0.716228 420.677 0.602887 438.018ZM285.47 375.322C287.563 371.863 290.904 368.687 295.068 367.662C375.656 344.605 425.587 289.047 446.758 264.998L451.146 260.092C457.203 253.597 467.12 253.219 473.755 258.653C480.248 264.711 480.626 274.628 475.192 281.264L470.805 286.171C447.963 311.808 393.645 372.273 303.964 397.86C301.188 398.543 298.553 398.602 296.059 398.038C293.565 397.474 291.212 396.286 289.001 394.474C286.789 392.663 284.859 389.604 284.177 386.828C282.388 383.146 283.376 378.781 285.47 375.322ZM9.99126 199.588C8.72134 205.2 10.5688 211.517 14.9921 215.14C17.2038 216.951 19.5566 218.139 22.0505 218.704L232.501 267.639C236.865 268.626 241.03 267.602 244.711 265.813C248.534 263.401 250.628 259.942 251.615 255.578C253.591 246.848 248.285 238.437 239.556 236.462L29.1056 187.527C20.377 185.552 11.9667 190.859 9.99126 199.588ZM337.063 497.771L325.742 698.402C325.237 703.531 327.508 707.977 331.308 711.459C333.519 713.271 335.872 714.458 338.366 715.023C338.989 715.164 340.236 715.446 340.86 715.587C349.871 716.315 357.316 709.479 357.421 700.327L368.742 499.696C369.471 490.684 362.636 483.238 353.625 482.51C345.237 481.923 337.792 488.759 337.063 497.771ZM392.385 482.105L472.665 680.523C473.488 682.676 474.935 684.97 477.147 686.781C479.359 688.593 481.712 689.781 484.205 690.345C487.323 691.051 490.581 691.132 493.498 689.826C501.485 686.39 505.472 677.46 502.178 668.849L421.898 470.431C418.462 462.443 409.534 458.456 400.923 461.751C393.077 464.564 388.949 474.117 392.385 482.105Z" fill="#111212"/>
</svg>
