<svg width="331" height="96" viewBox="0 0 331 96" fill="none" xmlns="http://www.w3.org/2000/svg">
<g clip-path="url(#clip0_1_184)">
<path d="M10.0243 93.9841L9.07744 94.4259C8.72768 94.6265 8.3414 94.7553 7.94125 94.8047C7.50865 94.9154 7.06142 94.958 6.61569 94.9309C5.74594 94.9651 4.88053 94.792 4.09082 94.4259C3.33276 94.1338 2.66001 93.6564 2.13405 93.0373C1.58375 92.4541 1.15465 91.7676 0.87162 91.0174C0.561613 90.2345 0.411381 89.3975 0.429769 88.5556C0.411133 87.6727 0.561097 86.7943 0.87162 85.9676C1.19128 85.2027 1.63962 84.4982 2.19718 83.8846C2.7639 83.3117 3.42604 82.8418 4.15395 82.4959C4.9329 82.166 5.76973 81.9943 6.61569 81.991C7.23875 81.9984 7.85666 82.1049 8.44622 82.3066C8.9928 82.4336 9.50808 82.6698 9.96114 83.0009L9.58241 83.7584C9.16607 83.4981 8.72133 83.2863 8.25685 83.1272C7.72895 82.947 7.17335 82.8615 6.61569 82.8747C5.92456 82.8727 5.23926 83.0012 4.5958 83.2534C3.93104 83.525 3.34506 83.9591 2.89151 84.5158C2.38518 85.0124 1.99689 85.6164 1.75532 86.2832C1.44637 87.0001 1.29566 87.7752 1.31347 88.5556C1.31036 89.2879 1.43864 90.0148 1.6922 90.7018C1.91139 91.3646 2.27831 91.9689 2.76527 92.4692C3.22878 92.9722 3.78633 93.3797 4.40643 93.6685C5.10084 93.9782 5.85558 94.1291 6.61569 94.1103C7.1737 94.1291 7.7303 94.0435 8.25685 93.8578L9.64553 93.2266L10.0243 93.9841Z" fill="#274747"/>
<path d="M12.928 88.4925C12.9374 87.6268 13.1087 86.7704 13.433 85.9676C13.7392 85.2145 14.1895 84.5284 14.7585 83.9477C15.3331 83.3395 16.0187 82.8467 16.7784 82.4959C17.5373 82.1725 18.3522 82.0009 19.177 81.991C20.023 81.9943 20.8598 82.166 21.6388 82.4959C22.3984 82.8467 23.084 83.3395 23.6587 83.9477C24.2277 84.5284 24.678 85.2145 24.9842 85.9676C25.3176 86.7677 25.4892 87.6258 25.4892 88.4925C25.4892 89.3592 25.3176 90.2173 24.9842 91.0174C24.678 91.7705 24.2277 92.4566 23.6587 93.0373C23.0986 93.6464 22.4081 94.1211 21.6388 94.4259C20.8697 94.7868 20.026 94.9598 19.177 94.9309C18.3562 94.9426 17.5412 94.7925 16.7784 94.4891C16.0224 94.1598 15.3367 93.6884 14.7585 93.1004C14.1895 92.5197 13.7392 91.8336 13.433 91.0805C13.1024 90.2576 12.931 89.3793 12.928 88.4925ZM13.8117 88.4925C13.7929 89.2526 13.9438 90.0074 14.2535 90.7018C14.4951 91.3686 14.8834 91.9726 15.3897 92.4692C15.8882 92.9597 16.464 93.3649 17.094 93.6685C17.7436 93.9786 18.4575 94.1301 19.177 94.1103C19.9161 94.1219 20.6487 93.9711 21.3232 93.6685C21.9532 93.3649 22.529 92.9597 23.0274 92.4692C23.5331 91.9592 23.9397 91.36 24.2268 90.7018C24.7322 89.2723 24.7322 87.7127 24.2268 86.2832C23.9233 85.6342 23.5184 85.0376 23.0274 84.5158C22.5454 84.006 21.9658 83.5981 21.3232 83.3165C20.6487 83.0139 19.9161 82.8631 19.177 82.8747C18.4575 82.8549 17.7436 83.0064 17.094 83.3165C16.4358 83.6036 15.8365 84.0102 15.3266 84.5158C14.8751 85.0777 14.4936 85.6924 14.1904 86.3464C13.9368 87.0333 13.8086 87.7602 13.8117 88.4925Z" fill="#274747"/>
<path d="M37.9873 93.9841L37.1036 94.4259L35.9674 94.8047C35.5129 94.9124 35.0453 94.9549 34.5787 94.9309C33.7096 94.958 32.8458 94.7853 32.0539 94.4259C31.3041 94.1186 30.6347 93.6436 30.0971 93.0373C29.5689 92.4374 29.1424 91.7551 28.8347 91.0174C28.5553 90.2261 28.4061 89.3947 28.3928 88.5556C28.3958 87.6688 28.5672 86.7906 28.8978 85.9676C29.2175 85.2027 29.6658 84.4982 30.2234 83.8846C30.7776 83.2972 31.4427 82.8252 32.1801 82.4959C32.9369 82.166 33.7532 81.9941 34.5787 81.991C35.2023 81.9927 35.8211 82.0994 36.4093 82.3066C36.9559 82.4336 37.4711 82.6698 37.9242 83.0009L37.6086 83.7584L36.2199 83.1272C35.714 82.9464 35.179 82.8608 34.6419 82.8747C33.9297 82.8662 33.2225 82.9948 32.5589 83.2534C31.9133 83.5581 31.3341 83.9871 30.8546 84.5158C30.3482 85.0124 29.9599 85.6164 29.7184 86.2832C29.4389 87.0089 29.2894 87.7781 29.2765 88.5556C29.2734 89.2879 29.4017 90.0148 29.6553 90.7018C29.8874 91.3617 30.2542 91.9661 30.7323 92.4768C31.2104 92.9875 31.7894 93.3933 32.4326 93.6685C33.125 93.9845 33.8812 94.1358 34.6419 94.1103C35.1995 94.1235 35.7551 94.038 36.283 93.8578C36.7475 93.6987 37.1922 93.4869 37.6086 93.2266L37.9873 93.9841Z" fill="#274747"/>
<path d="M41.7114 82.1803H42.532V94.8046H41.7114V82.1803Z" fill="#274747"/>
<path d="M57.3024 95.1203L47.6448 83.8846L47.8341 83.6953V94.8047H47.0767V81.8647L56.7974 93.2266H56.5449V82.1804H57.3655V95.1203H57.3024Z" fill="#274747"/>
<path d="M60.7742 94.8046L65.9501 81.6122H66.0133L71.1892 94.8046H70.2424L65.7608 83.0009L66.3289 82.6221L61.5948 94.8046H60.7742ZM63.2359 89.818H68.7275L68.9169 90.6386H63.0465L63.2359 89.818Z" fill="#274747"/>
<path d="M83.3085 82.1803C84.0008 82.1649 84.6887 82.2939 85.3284 82.559C85.893 82.7977 86.3602 83.2204 86.6539 83.7583C86.9774 84.3579 87.1303 85.0347 87.0958 85.7151C87.0992 86.1847 87.0354 86.6523 86.9064 87.1038C86.7775 87.5548 86.539 87.9668 86.2121 88.3031C85.881 88.681 85.4718 88.9825 85.0128 89.1868C84.448 89.3994 83.8489 89.5064 83.2454 89.5024H81.3517V94.8046H80.468V82.1803H83.3085ZM83.2454 88.6818C83.7667 88.682 84.2824 88.5746 84.7603 88.3662C85.1208 88.2028 85.4274 87.9401 85.644 87.6088C85.8604 87.3212 86.0307 87.0018 86.149 86.6619C86.2525 86.3576 86.2953 86.0359 86.2752 85.7151C86.2789 85.3488 86.2147 84.985 86.0858 84.642C85.9573 84.3125 85.7642 84.0121 85.5178 83.7583C85.2748 83.4987 84.9711 83.3035 84.634 83.1902C84.2476 83.0608 83.8423 82.9968 83.4347 83.0009H81.3517V88.6818H83.2454Z" fill="#274747"/>
<path d="M90.6306 82.1803H98.2052V83.0009H91.5143V87.9875H97.5109V88.8712H91.5143V93.984H98.4577V94.8046H90.6306V82.1803Z" fill="#274747"/>
<path d="M105.086 82.1803L106.411 82.3697C106.877 82.4754 107.31 82.692 107.674 83.0009C108.067 83.2909 108.373 83.6841 108.557 84.1371C108.822 84.62 108.952 85.1648 108.936 85.7151C108.939 86.1847 108.876 86.6523 108.747 87.1038C108.592 87.5435 108.357 87.9503 108.052 88.3031C107.721 88.681 107.312 88.9825 106.853 89.1868C106.266 89.3989 105.646 89.5057 105.022 89.5024H103.129V94.8046H102.245V82.1803H105.086ZM104.959 88.6818C105.482 88.6942 106 88.5862 106.474 88.3662C106.85 88.2304 107.179 87.9893 107.421 87.6719C107.649 87.4157 107.821 87.1147 107.926 86.7882C107.995 86.4555 108.037 86.1177 108.052 85.7782C108.056 85.4119 107.992 85.0481 107.863 84.7052C107.734 84.3756 107.541 84.0752 107.295 83.8215C107.015 83.5613 106.696 83.3481 106.348 83.1902C105.983 83.0606 105.599 82.9965 105.212 83.0009H103.129V88.6818H104.959ZM106.727 89.0606L110.135 94.8046H109.125L105.717 89.0606H106.727Z" fill="#274747"/>
<path d="M114.554 90.5124C114.521 91.1725 114.674 91.8285 114.996 92.406C115.275 92.9271 115.689 93.3633 116.195 93.6684C116.71 93.9744 117.301 94.1276 117.899 94.1103C118.519 94.1363 119.132 93.9828 119.667 93.6684C120.186 93.3802 120.605 92.9396 120.866 92.406C121.187 91.8285 121.341 91.1725 121.308 90.5124V82.1803H122.128V90.5755C122.147 91.3829 121.974 92.1833 121.623 92.911C121.282 93.5785 120.726 94.112 120.045 94.4259C119.392 94.7931 118.648 94.9682 117.899 94.9309C117.152 94.9583 116.41 94.7839 115.753 94.4259C115.104 94.0898 114.574 93.5605 114.238 92.911C113.888 92.1833 113.715 91.3829 113.733 90.5755V82.1803H114.554V90.5124Z" fill="#274747"/>
<path d="M125.411 94.8046L130.587 81.6122H130.65L135.826 94.8046H134.879L130.397 83.0009L130.965 82.6221L126.294 94.8046H125.411ZM127.936 89.818H133.364L133.616 90.6386H127.746L127.936 89.818Z" fill="#274747"/>
<path d="M149.523 95.1203L139.866 83.8846L140.055 83.6953V94.8047H139.298V81.8647L149.018 93.2266H148.766V82.1804H149.586V95.1203H149.523Z" fill="#274747"/>
<path d="M152.995 94.8046L158.171 81.6122H158.234L163.41 94.8046H162.463L157.918 83.0009L158.55 82.6221L153.815 94.8046H152.995ZM155.457 89.818H160.948L161.138 90.6386H155.267L155.457 89.818Z" fill="#274747"/>
<path d="M175.403 82.1803C176.388 82.1156 177.365 82.3823 178.181 82.9377C178.516 83.2345 178.777 83.6065 178.942 84.0234C179.106 84.4403 179.17 84.8902 179.127 85.3364C179.152 85.8802 179.044 86.4219 178.812 86.9144C178.611 87.3574 178.308 87.7466 177.928 88.0506C177.455 88.3154 176.944 88.507 176.413 88.6187L176.287 88.1768C176.905 88.2175 177.508 88.3897 178.054 88.6818C178.573 88.9353 179.01 89.3289 179.317 89.818C179.632 90.3054 179.786 90.8794 179.759 91.4592C179.798 91.9635 179.688 92.4683 179.443 92.911C179.24 93.3349 178.936 93.7032 178.559 93.984C178.203 94.2685 177.796 94.4827 177.36 94.6152C176.887 94.7444 176.398 94.8081 175.908 94.8046H172.689V82.1803H175.403ZM175.845 88.0506C176.191 88.0675 176.537 88.0148 176.862 87.8955C177.188 87.7762 177.486 87.5928 177.739 87.3562C178.121 86.8236 178.32 86.1813 178.307 85.5257C178.342 85.1631 178.292 84.7973 178.16 84.4575C178.029 84.1177 177.819 83.8134 177.549 83.5689C176.928 83.1745 176.202 82.9765 175.466 83.0009H173.573V88.0506H175.845ZM175.845 93.984C176.362 94.0024 176.877 93.9166 177.36 93.7315C177.818 93.5886 178.217 93.3005 178.496 92.911C178.772 92.4761 178.925 91.9742 178.938 91.4592C178.955 90.9295 178.775 90.4123 178.433 90.0074C178.144 89.6268 177.749 89.3411 177.297 89.1868C176.832 89.017 176.34 88.9315 175.845 88.9343H173.573V93.984H175.845Z" fill="#274747"/>
<path d="M186.639 90.323L182.031 82.1803H183.104L187.207 89.5655H186.891L191.057 82.1803H192.067L187.459 90.323V94.8046H186.639V90.323Z" fill="#274747"/>
<path d="M201.157 94.8047V81.8647H201.22L207.216 90.7018H206.901L212.897 81.8647V94.8047H212.077V84.3265L206.964 91.7117L201.788 84.3265L201.977 83.8846V94.8047H201.157Z" fill="#274747"/>
<path d="M218.2 90.5124C218.167 91.1725 218.32 91.8285 218.641 92.406C218.903 92.9396 219.321 93.3802 219.841 93.6684C220.355 93.9744 220.947 94.1276 221.545 94.1103C222.164 94.1363 222.778 93.9828 223.312 93.6684C223.819 93.3633 224.233 92.9271 224.512 92.406C224.833 91.8285 224.986 91.1725 224.954 90.5124V82.1803H225.774V90.5755C225.804 91.3915 225.608 92.1999 225.206 92.911C224.87 93.5605 224.341 94.0898 223.691 94.4259C223.038 94.7931 222.294 94.9682 221.545 94.9309C220.797 94.9583 220.056 94.7839 219.399 94.4259C218.749 94.0898 218.22 93.5605 217.884 92.911C217.482 92.1999 217.286 91.3915 217.316 90.5755V82.1803H218.2V90.5124Z" fill="#274747"/>
<path d="M233.033 82.1803L234.359 82.3697C234.819 82.4897 235.249 82.7047 235.621 83.0009C236.015 83.2909 236.321 83.6841 236.505 84.1371C236.769 84.62 236.9 85.1648 236.884 85.7151C236.887 86.1847 236.823 86.6523 236.694 87.1038C236.54 87.5435 236.304 87.9503 236 88.3031C235.669 88.681 235.26 88.9825 234.801 89.1868C234.214 89.3989 233.594 89.5057 232.97 89.5024H231.076V94.8046H230.193V82.1803H233.033ZM232.907 88.6818C233.429 88.6942 233.948 88.5862 234.422 88.3662C234.798 88.2304 235.126 87.9893 235.369 87.6719C235.597 87.4157 235.769 87.1147 235.874 86.7882C235.943 86.4555 235.985 86.1177 236 85.7782C236.004 85.4119 235.939 85.0481 235.811 84.7052C235.682 84.3756 235.489 84.0752 235.242 83.8215C234.963 83.5613 234.643 83.3481 234.296 83.1902C233.91 83.0559 233.504 82.9917 233.096 83.0009H231.076V88.6818H232.907ZM234.674 89.0606L238.083 94.8046H237.073L233.664 89.0606H234.674Z" fill="#274747"/>
<path d="M242.501 90.5124C242.469 91.1725 242.622 91.8285 242.943 92.406C243.222 92.9271 243.636 93.3633 244.143 93.6684C244.657 93.9744 245.248 94.1276 245.847 94.1103C246.466 94.1363 247.08 93.9828 247.614 93.6684C248.134 93.3802 248.552 92.9396 248.814 92.406C249.135 91.8285 249.288 91.1725 249.255 90.5124V82.1803H250.076V90.5755C250.106 91.3915 249.909 92.1999 249.508 92.911C249.191 93.5741 248.656 94.1087 247.993 94.4259C247.339 94.7931 246.595 94.9682 245.847 94.9309C245.099 94.9583 244.358 94.7839 243.701 94.4259C243.051 94.0898 242.522 93.5605 242.186 92.911C241.806 92.1936 241.631 91.3856 241.681 90.5755V82.1803H242.501V90.5124Z" fill="#274747"/>
<path d="M35.6518 58.5097H33.3795L15.8948 16.2814C14.9479 13.8827 14.1273 11.8628 13.4961 10.0954L12.6756 16.4076L5.79529 61.6027H1.69238L11.6025 1.38464H13.938L32.5589 45.696C33.4477 47.5778 34.2069 49.518 34.8313 51.5032C34.9575 50.872 35.8412 48.9784 37.4192 45.7592L58.1863 1.38464H60.4586L69.5482 61.6027H65.3821L58.8806 16.2814C58.5011 14.1538 58.2691 12.0025 58.1863 9.84295C58.0316 10.0802 57.9046 10.3343 57.8075 10.6004C57.6182 11.1054 57.3026 11.8628 56.7976 12.9359L55.3458 16.3445L35.6518 58.5097Z" fill="#274747"/>
<path d="M89.1158 40.8988L80.5313 61.6027H76.239L101.425 1.44775H103.76L128.946 61.6027H124.464L115.879 40.8988H89.1158ZM102.308 8.13865C102.142 8.45313 102.035 8.79546 101.993 9.1486C101.172 11.5472 100.478 13.5671 99.7203 15.2714L90.5045 37.4902H114.428L105.212 15.3345C103.318 11.1054 102.308 8.70674 102.308 8.13865Z" fill="#274747"/>
<path d="M145.168 11.421L145.357 18.4906V61.6027H141.317V1.38464H143.148L182.536 46.7691C185.187 49.9252 187.27 52.4501 188.722 54.3437C188.469 51.6926 188.406 48.5996 188.406 45.1911V1.88962H192.383V62.1077H190.552L150.47 15.9026C147.63 12.7465 145.862 10.6004 145.105 9.59046L145.168 11.421Z" fill="#274747"/>
<path d="M219.273 53.7125C213.718 47.7159 210.941 40.3938 210.941 31.683C210.941 22.9722 213.718 15.7132 219.273 9.77979C224.827 3.84636 231.771 0.879639 240.292 0.879639C248.814 0.879639 255.757 3.84636 261.312 9.77979C266.866 15.7132 269.707 23.0353 269.707 31.683C269.749 36.6158 268.669 41.4937 266.551 45.9485C264.561 50.1966 261.598 53.916 257.903 56.8054C269.349 63.7067 278.144 68.2094 284.288 70.3135C291.694 72.8383 298.322 74.1008 304.171 74.1008C308.079 74.0207 311.969 73.5556 315.786 72.7121C320.141 71.8284 323.234 70.9447 325.128 69.9978L326.138 72.3334C322.946 73.7822 319.6 74.8623 316.164 75.5526C312.244 76.5628 308.219 77.1136 304.171 77.1937C300.41 77.1601 296.663 76.7157 292.999 75.8682C289.085 74.9845 285.74 74.1008 282.899 73.1539C279.322 71.8664 275.823 70.3699 272.421 68.6723C268.255 66.5893 265.288 65.0112 263.458 64.0013L254.621 58.9516C250.247 61.4045 245.306 62.6669 240.292 62.6126C231.792 62.6126 224.785 59.6459 219.273 53.7125ZM222.239 12.3678C217.568 17.6069 215.296 24.0453 215.296 31.683C215.296 39.3207 217.631 45.8854 222.239 51.1245C226.847 56.3636 232.907 58.9516 240.292 58.9516C244.046 58.9882 247.76 58.1679 251.149 56.5529C244.143 51.8188 238.651 49.4202 234.674 49.4202C232.553 49.3294 230.445 49.7859 228.551 50.7457L227.226 48.3471C229.503 46.8984 232.166 46.1722 234.864 46.2641C237.996 46.2896 241.082 47.0233 243.89 48.4102C247.528 50.2164 251.029 52.2838 254.368 54.5962C257.853 52.1318 260.637 48.8037 262.448 44.9386C264.387 40.7901 265.379 36.2622 265.351 31.683C265.351 24.0663 263.016 17.6279 258.345 12.3678C253.674 7.1918 247.677 4.54069 240.292 4.54069C232.907 4.54069 226.847 7.1918 222.239 12.3678Z" fill="#274747"/>
<path d="M290.537 40.8988L281.952 61.6027H277.723L302.846 1.44775H305.181L330.43 61.6027H325.885L317.301 40.8988H290.537ZM303.793 8.13865C303.622 8.45686 303.494 8.79653 303.414 9.1486C302.656 11.5472 301.899 13.5671 301.205 15.2714L291.989 37.4902H315.912L306.696 15.3345C304.739 11.1054 303.793 8.70674 303.793 8.13865Z" fill="#274747"/>
</g>
<defs>
<clipPath id="clip0_1_184">
<rect width="330" height="94.2406" fill="white" transform="translate(0.429932 0.879639)"/>
</clipPath>
</defs>
</svg>
