<svg width="82" height="18" viewBox="0 0 82 18" fill="none"><path d="M0.706836 14.16V7.26H1.40684L1.46684 7.76C1.68684 7.55333 1.92684 7.40333 2.18684 7.31C2.4535 7.21 2.7635 7.16 3.11684 7.16C3.7835 7.16 4.30684 7.34667 4.68684 7.72C5.06684 8.08667 5.25684 8.7 5.25684 9.56C5.25684 10.4133 5.06684 11.05 4.68684 11.47C4.30684 11.89 3.78017 12.1 3.10684 12.1C2.48684 12.1 1.96017 11.95 1.52684 11.65V14.16H0.706836ZM2.88684 11.44C3.42017 11.44 3.81017 11.29 4.05684 10.99C4.31017 10.6833 4.43684 10.2067 4.43684 9.56C4.43684 8.94 4.32017 8.49667 4.08684 8.23C3.8535 7.95667 3.46017 7.82 2.90684 7.82C2.6335 7.82 2.38017 7.86667 2.14684 7.96C1.9135 8.05333 1.70684 8.19667 1.52684 8.39V10.97C1.6935 11.1167 1.89017 11.2333 2.11684 11.32C2.3435 11.4 2.60017 11.44 2.88684 11.44ZM8.72879 12.1C7.90212 12.1 7.29879 11.89 6.91879 11.47C6.54546 11.0433 6.35879 10.43 6.35879 9.63C6.35879 8.83667 6.54879 8.22667 6.92879 7.8C7.30879 7.37333 7.90879 7.16 8.72879 7.16C9.54879 7.16 10.1488 7.37333 10.5288 7.8C10.9088 8.22667 11.0988 8.83667 11.0988 9.63C11.0988 10.43 10.9121 11.0433 10.5388 11.47C10.1655 11.89 9.56212 12.1 8.72879 12.1ZM8.72879 11.4C9.29546 11.4 9.69546 11.26 9.92879 10.98C10.1621 10.6933 10.2788 10.2433 10.2788 9.63C10.2788 9.01667 10.1588 8.57 9.91879 8.29C9.68546 8.00333 9.28879 7.86 8.72879 7.86C8.16879 7.86 7.76879 8.00333 7.52879 8.29C7.29546 8.57 7.17879 9.01667 7.17879 9.63C7.17879 10.2433 7.29546 10.6933 7.52879 10.98C7.76212 11.26 8.16212 11.4 8.72879 11.4ZM12.9918 12L11.7518 7.26H12.5718L13.5018 11.07L14.5618 7.81V7.26H15.1918L16.3618 11.07L17.2918 7.26H18.1118L16.8718 12H16.0518L14.9418 8.56L13.8118 12H12.9918ZM21.2958 12.1C20.4492 12.1 19.8158 11.8967 19.3958 11.49C18.9758 11.0833 18.7658 10.4567 18.7658 9.61C18.7658 8.85 18.9458 8.25333 19.3058 7.82C19.6725 7.38 20.2492 7.16 21.0358 7.16C21.5025 7.16 21.8858 7.24667 22.1858 7.42C22.4925 7.58667 22.7192 7.82 22.8658 8.12C23.0192 8.41333 23.0958 8.74667 23.0958 9.12V10.01H19.5858C19.6125 10.37 19.6892 10.6533 19.8158 10.86C19.9492 11.0667 20.1458 11.2167 20.4058 11.31C20.6725 11.3967 21.0225 11.44 21.4558 11.44C21.9425 11.44 22.3892 11.3567 22.7958 11.19V11.83C22.5892 11.9167 22.3558 11.9833 22.0958 12.03C21.8425 12.0767 21.5758 12.1 21.2958 12.1ZM19.5858 9.42H22.3658V9.03C22.3658 8.64333 22.2625 8.34667 22.0558 8.14C21.8558 7.92667 21.5225 7.82 21.0558 7.82C20.4892 7.82 20.1025 7.95333 19.8958 8.22C19.6892 8.48667 19.5858 8.88667 19.5858 9.42ZM24.3979 12V7.26H25.1379L25.1979 7.86C25.4312 7.70667 25.7045 7.56667 26.0179 7.44C26.3379 7.31333 26.6512 7.22 26.9579 7.16V7.8C26.7712 7.84 26.5679 7.89667 26.3479 7.97C26.1279 8.03667 25.9179 8.11333 25.7179 8.2C25.5179 8.28667 25.3512 8.37667 25.2179 8.47V12H24.3979ZM30.0896 12.1C29.2429 12.1 28.6096 11.8967 28.1896 11.49C27.7696 11.0833 27.5596 10.4567 27.5596 9.61C27.5596 8.85 27.7396 8.25333 28.0996 7.82C28.4662 7.38 29.0429 7.16 29.8296 7.16C30.2962 7.16 30.6796 7.24667 30.9796 7.42C31.2862 7.58667 31.5129 7.82 31.6596 8.12C31.8129 8.41333 31.8896 8.74667 31.8896 9.12V10.01H28.3796C28.4062 10.37 28.4829 10.6533 28.6096 10.86C28.7429 11.0667 28.9396 11.2167 29.1996 11.31C29.4662 11.3967 29.8162 11.44 30.2496 11.44C30.7362 11.44 31.1829 11.3567 31.5896 11.19V11.83C31.3829 11.9167 31.1496 11.9833 30.8896 12.03C30.6362 12.0767 30.3696 12.1 30.0896 12.1ZM28.3796 9.42H31.1596V9.03C31.1596 8.64333 31.0562 8.34667 30.8496 8.14C30.6496 7.92667 30.3162 7.82 29.8496 7.82C29.2829 7.82 28.8962 7.95333 28.6896 8.22C28.4829 8.48667 28.3796 8.88667 28.3796 9.42ZM35.1316 12.1C34.4649 12.1 33.9416 11.9167 33.5616 11.55C33.1816 11.1767 32.9916 10.56 32.9916 9.7C32.9916 8.84667 33.1883 8.21 33.5816 7.79C33.9816 7.37 34.5149 7.16 35.1816 7.16C35.7749 7.16 36.2883 7.31 36.7216 7.61V5.26H37.5416V12H36.8416L36.7816 11.5C36.5616 11.7067 36.3183 11.86 36.0516 11.96C35.7916 12.0533 35.4849 12.1 35.1316 12.1ZM35.3416 11.44C35.6149 11.44 35.8683 11.3933 36.1016 11.3C36.3349 11.2067 36.5416 11.0633 36.7216 10.87V8.29C36.5549 8.14333 36.3583 8.03 36.1316 7.95C35.9049 7.86333 35.6483 7.82 35.3616 7.82C34.8349 7.82 34.4449 7.97333 34.1916 8.28C33.9383 8.58 33.8116 9.05333 33.8116 9.7C33.8116 10.32 33.9283 10.7667 34.1616 11.04C34.3949 11.3067 34.7883 11.44 35.3416 11.44ZM43.8582 12.1C43.5049 12.1 43.1949 12.0533 42.9282 11.96C42.6682 11.86 42.4282 11.7067 42.2082 11.5L42.1482 12H41.4482V5.26H42.2682V7.61C42.7016 7.31 43.2282 7.16 43.8482 7.16C44.5216 7.16 45.0482 7.35333 45.4282 7.74C45.8082 8.12 45.9982 8.73667 45.9982 9.59C45.9982 10.45 45.8082 11.0833 45.4282 11.49C45.0482 11.8967 44.5249 12.1 43.8582 12.1ZM43.6482 11.44C44.2016 11.44 44.5949 11.2867 44.8282 10.98C45.0616 10.6733 45.1782 10.21 45.1782 9.59C45.1782 8.94333 45.0516 8.48667 44.7982 8.22C44.5516 7.95333 44.1616 7.82 43.6282 7.82C43.3416 7.82 43.0849 7.86333 42.8582 7.95C42.6316 8.03 42.4349 8.14333 42.2682 8.29V10.87C42.4482 11.0633 42.6549 11.2067 42.8882 11.3C43.1216 11.3933 43.3749 11.44 43.6482 11.44ZM47.6433 13.76C47.33 13.76 47.0567 13.7167 46.8233 13.63V12.97C46.9367 13.01 47.04 13.0367 47.1333 13.05C47.2333 13.0633 47.3333 13.07 47.4333 13.07C47.66 13.07 47.8367 13.03 47.9633 12.95C48.0967 12.87 48.2133 12.7467 48.3133 12.58C48.4133 12.42 48.5233 12.21 48.6433 11.95L46.5533 7.26H47.4033L49.0533 11.08L50.7533 7.26H51.5933L49.6033 11.79C49.4367 12.17 49.2667 12.5067 49.0933 12.8C48.92 13.1 48.72 13.3333 48.4933 13.5C48.2667 13.6733 47.9833 13.76 47.6433 13.76Z" fill="#091211"></path><g clip-path="url(#clip0_25_1748)"><path d="M64.5898 12.8078H63.0832V11.6743C62.5093 12.5245 61.3615 13.0204 60.2854 13.0204C57.7746 13.0204 56.1963 11.1784 56.1963 8.84052C56.1963 6.43181 57.8463 4.66068 60.2854 4.66068C61.4332 4.66068 62.5811 5.1566 63.0832 6.00673V0.126617H64.5898V12.8078ZM63.0832 8.84052C63.0832 7.21109 62.0789 6.07758 60.4289 6.07758C58.7789 6.07758 57.7746 7.21109 57.7746 8.84052C57.7746 10.47 58.7789 11.6035 60.4289 11.6035C62.0789 11.6035 63.0832 10.47 63.0832 8.84052Z" fill="#E16043"></path><path d="M67.1007 0.905914C67.7464 0.905914 68.2485 1.40183 68.2485 2.03942C68.2485 2.67703 67.7464 3.17295 67.1007 3.17295C66.455 3.17295 65.9529 2.67703 65.9529 2.03942C65.9529 1.40183 66.5268 0.905914 67.1007 0.905914ZM66.3833 4.87323H67.8898V12.8078H66.3833V4.87323Z" fill="#E16043"></path><path d="M70.5442 0.905914C71.1898 0.905914 71.692 1.40183 71.692 2.03942C71.692 2.67703 71.1898 3.17295 70.5442 3.17295C69.8985 3.17295 69.3964 2.67703 69.3964 2.03942C69.3964 1.40183 69.8985 0.905914 70.5442 0.905914ZM69.755 4.87323H71.2616V12.8078H69.755V4.87323Z" fill="#E16043"></path><path d="M73.0551 4.87321H74.5616V6.00672C75.1354 5.15659 76.2832 4.66068 77.3593 4.66068C79.8703 4.66068 81.4485 6.50264 81.4485 8.84051C81.4485 11.2492 79.7985 13.0204 77.3593 13.0204C76.2115 13.0204 75.0637 12.5244 74.5616 11.6743V17.5544H73.0551V4.87321ZM74.5616 8.84051C74.5616 10.4699 75.5658 11.6035 77.2159 11.6035C78.8659 11.6035 79.8703 10.4699 79.8703 8.84051C79.8703 7.21108 78.8659 6.07757 77.2159 6.07757C75.5658 6.07757 74.5616 7.21108 74.5616 8.84051Z" fill="#E16043"></path></g><defs><clipPath id="clip0_25_1748"><rect width="25.5556" height="17.6923" fill="white" transform="translate(56)"></rect></clipPath></defs></svg>