<svg xmlns="http://www.w3.org/2000/svg" width="38" height="25" viewBox="0 0 38 25" fill="none">
  <g clip-path="url(#clip0_199_2598)">
    <path d="M9.51103 9.74915C6.87729 9.74915 4.74805 11.8784 4.74805 14.5047C4.74805 17.131 6.87729 19.2603 9.50361 19.2603C12.1299 19.2603 14.2592 17.131 14.2592 14.5047C14.2666 11.8784 12.1373 9.74915 9.51103 9.74915ZM9.51103 17.91C7.63403 17.91 6.10572 16.3891 6.10572 14.5047C6.10572 12.6203 7.62661 11.0994 9.51103 11.0994C11.3954 11.0994 12.9089 12.6277 12.9089 14.5047C12.9089 16.3817 11.388 17.91 9.51103 17.91Z" fill="#70797A"/>
    <path d="M9.52608 16.8639C10.8331 16.8639 11.8927 15.8043 11.8927 14.4973C11.8927 13.1902 10.8331 12.1306 9.52608 12.1306C8.21901 12.1306 7.15942 13.1902 7.15942 14.4973C7.15942 15.8043 8.21901 16.8639 9.52608 16.8639Z" fill="#70797A"/>
    <path d="M28.5036 9.74915C25.8773 9.74915 23.748 11.8784 23.748 14.5047C23.748 17.131 25.8773 19.2603 28.5036 19.2603C31.1299 19.2603 33.2592 17.131 33.2592 14.5047C33.2592 11.8784 31.1299 9.74915 28.5036 9.74915ZM28.5036 17.91C26.6266 17.91 25.0983 16.3891 25.0983 14.5047C25.0983 12.6203 26.6192 11.0994 28.5036 11.0994C30.388 11.0994 31.9015 12.6277 31.9015 14.5047C31.9015 16.3817 30.3806 17.91 28.5036 17.91Z" fill="#70797A"/>
    <path d="M28.5185 16.8639C29.8256 16.8639 30.8852 15.8043 30.8852 14.4973C30.8852 13.1902 29.8256 12.1306 28.5185 12.1306C27.2114 12.1306 26.1519 13.1902 26.1519 14.4973C26.1519 15.8043 27.2114 16.8639 28.5185 16.8639Z" fill="#70797A"/>
    <path d="M35.1956 7.76838L37.9926 4.99368H32.3245C29.1492 2.41188 23.8743 0.260376 18.9852 0.260376C14.0886 0.260376 8.85826 2.41188 5.68294 4.99368H0L2.79695 7.76838C1.06833 9.48958 0 11.8711 0 14.5048C0 19.7574 4.25849 24.0159 9.51113 24.0159C11.9223 24.0159 14.1257 23.1182 15.8024 21.6345L19.0223 24.0011L22.205 21.6864L22.1679 21.5974C23.852 23.096 26.0629 24.0085 28.4963 24.0085C33.7489 24.0085 38.0074 19.75 38.0074 14.4974C38 11.8711 36.9243 9.48958 35.1956 7.76838ZM27.3018 5.06787C22.7985 5.63172 19.2671 9.3412 19 13.9336C18.7255 9.33379 15.1866 5.61688 10.6685 5.06787C12.9387 3.4357 15.8321 2.63445 18.9852 2.63445C22.1382 2.63445 25.0316 3.4357 27.3018 5.06787ZM9.51113 21.6419C5.56423 21.6419 2.37407 18.4443 2.37407 14.5048C2.37407 10.5653 5.57165 7.36776 9.51113 7.36776C13.4506 7.36776 16.6482 10.5653 16.6482 14.5048C16.6408 18.4443 13.4506 21.6419 9.51113 21.6419ZM28.5037 21.6419C24.5642 21.6419 21.3667 18.4443 21.3667 14.5048C21.3667 10.5653 24.5642 7.36776 28.5037 7.36776C32.4432 7.36776 35.6408 10.5653 35.6408 14.5048C35.6333 18.4443 32.4432 21.6419 28.5037 21.6419Z" fill="#70797A"/>
  </g>
  <defs>
    <clipPath id="clip0_199_2598">
      <rect width="38" height="23.7576" fill="white" transform="translate(0 0.259277)"/>
    </clipPath>
  </defs>
</svg>